<svg height="512pt" viewBox="-112 0 512 512.001" width="512pt" xmlns="http://www.w3.org/2000/svg"><path d="m218.5 414.003906c-8.285156 0-15 6.722656-15 15.011719v67.976563c0 8.289062 6.714844 15.007812 15 15.007812s15-6.71875 15-15.007812v-67.976563c0-8.289063-6.714844-15.011719-15-15.011719zm0 0" fill="#262f36"/><path d="m68.5 414.003906c-8.285156 0-15 6.722656-15 15.011719v67.976563c0 8.289062 6.714844 15.007812 15 15.007812s15-6.71875 15-15.007812v-67.976563c0-8.289063-6.714844-15.011719-15-15.011719zm0 0" fill="#5e747d"/><path d="m287 40.023438c0-22.105469-17.910156-40.023438-40-40.023438h-207c-22.089844 0-40 17.917969-40 40.023438v400.230468c0 22.105469 17.910156 40.023438 40 40.023438h207c22.089844 0 40-17.917969 40-40.023438zm0 0" fill="#f5f5f5"/><path d="m287 40.023438c0-22.105469-17.910156-40.023438-40-40.023438h-103.5v480.277344h103.5c22.089844 0 40-17.917969 40-40.023438zm0 0" fill="#afc3c9"/><path d="m154.066406 390.761719c-2.789062-2.78125-6.632812-4.375-10.566406-4.375s-7.789062 1.59375-10.566406 4.375c-2.777344 2.789062-4.371094 6.632812-4.371094 10.570312s1.59375 7.78125 4.371094 10.574219c2.789062 2.777344 6.632812 4.375 10.566406 4.375s7.777344-1.59375 10.566406-4.375c2.777344-2.792969 4.371094-6.636719 4.371094-10.574219 0-3.933593-1.59375-7.78125-4.371094-10.570312zm0 0" fill="#96adb5"/><path d="m154.066406 390.761719c-2.789062-2.78125-6.632812-4.375-10.566406-4.375v29.890625c3.933594 0 7.777344-1.59375 10.566406-4.375 2.777344-2.789063 4.371094-6.632813 4.371094-10.570313 0-3.933593-1.59375-7.78125-4.371094-10.570312zm0 0" fill="#455b69"/><path d="m201 146.085938h-114.996094c-8.285156 0-15 6.71875-15 15.007812s6.714844 15.007812 15 15.007812h114.996094c8.28125 0 15-6.71875 15-15.007812s-6.71875-15.007812-15-15.007812zm0 0" fill="#a1c5ff"/><path d="m201 146.085938h-57.5v30.015624h57.5c8.28125 0 15-6.71875 15-15.007812s-6.71875-15.007812-15-15.007812zm0 0" fill="#5a8cdb"/><path d="m201 86.050781h-114.996094c-8.285156 0-15 6.71875-15 15.007813 0 8.289062 6.714844 15.007812 15 15.007812h114.996094c8.28125 0 15-6.71875 15-15.007812 0-8.289063-6.71875-15.007813-15-15.007813zm0 0" fill="#a1c5ff"/><path d="m201 86.050781h-57.5v30.015625h57.5c8.28125 0 15-6.71875 15-15.007812 0-8.289063-6.71875-15.007813-15-15.007813zm0 0" fill="#5a8cdb"/></svg>