<svg height="512" viewBox="0 0 58 58" width="512" xmlns="http://www.w3.org/2000/svg"><g id="Page-1" fill="none" fill-rule="evenodd"><g id="033---Ethernet" fill-rule="nonzero"><rect id="Rectangle-path" fill="#7f8284" height="58" rx="3" width="58"/><path id="Shape" d="m53 24v26c-.0032402 1.1032246-.8967754 1.9967598-2 2h-44c-1.10322458-.0032402-1.9967598-.8967754-2-2v-26c.0032402-1.1032246.89677542-1.9967598 2-2h4c.5516236-.0015928.9984072-.4483764 1-1v-5c.0015928-.5516236.4483764-.9984072 1-1h5c.5516236-.0015928.9984072-.4483764 1-1v-4c.0015928-.55162365.4483764-.99840721 1-1h18c.5516236.00159279.9984072.44837635 1 1v4c.0015928.5516236.4483764.9984072 1 1h5c.5516236.0015928.9984072.4483764 1 1v5c.0015928.5516236.4483764.9984072 1 1h4c1.1032246.0032402 1.9967598.8967754 2 2z" fill="#393f4a"/><path id="Shape" d="m14 38v10h-4c-.55162365-.0015928-.99840721-.4483764-1-1v-8c.00159279-.5516236.44837635-.9984072 1-1z" fill="#f0c419"/><path id="Rectangle-path" d="m14 38h5v10h-5z" fill="#f3d55b"/><path id="Rectangle-path" d="m19 38h5v10h-5z" fill="#f0c419"/><path id="Rectangle-path" d="m24 38h5v10h-5z" fill="#f3d55b"/><path id="Rectangle-path" d="m29 38h5v10h-5z" fill="#f0c419"/><path id="Rectangle-path" d="m34 38h5v10h-5z" fill="#f3d55b"/><path id="Rectangle-path" d="m39 38h5v10h-5z" fill="#f0c419"/><path id="Shape" d="m49 39v8c-.0015928.5516236-.4483764.9984072-1 1h-4v-10h4c.5516236.0015928.9984072.4483764 1 1z" fill="#f3d55b"/><rect id="Rectangle-path" fill="#4fba6f" height="5" rx="1" width="8" x="5" y="6"/><rect id="Rectangle-path" fill="#f29c1f" height="5" rx="1" width="8" x="45" y="6"/></g></g></svg>