<svg id="Layer_1" enable-background="new 0 0 512 512" height="512" viewBox="0 0 512 512" width="512" xmlns="http://www.w3.org/2000/svg"><g><circle cx="256" cy="256" fill="#3291ff" r="256"/><path d="m512 256c0-141.159-114.841-256-256-256v512c141.159 0 256-114.841 256-256z" fill="#525cdd"/><path d="m256 190.667c-25.989 0-47.133-21.145-47.133-47.134s21.144-47.133 47.133-47.133 47.133 21.144 47.133 47.133-21.144 47.134-47.133 47.134z" fill="#f4f1f1"/><path d="m256 224.934c-25.989 0-47.133 21.144-47.133 47.133v96.4c0 25.989 21.144 47.133 47.133 47.133s47.133-21.144 47.133-47.133v-96.4c0-25.99-21.144-47.133-47.133-47.133z" fill="#f4f1f1"/><g fill="#e7dfdd"><path d="m303.133 143.533c0-25.989-21.144-47.133-47.133-47.133v94.267c25.989 0 47.133-21.145 47.133-47.134z"/><path d="m303.133 368.467v-96.4c0-25.989-21.144-47.133-47.133-47.133v190.666c25.989 0 47.133-21.144 47.133-47.133z"/></g></g></svg>