<svg id="color" enable-background="new 0 0 24 24" height="512" viewBox="0 0 24 24" width="512" xmlns="http://www.w3.org/2000/svg"><path d="m18.5 8h-15c-1.933 0-3.5-1.567-3.5-3.5 0-1.933 1.567-3.5 3.5-3.5h15c1.933 0 3.5 1.567 3.5 3.5 0 1.933-1.567 3.5-3.5 3.5z" fill="#cfd8dc"/><path d="m18.5 15h-15c-1.933 0-3.5-1.567-3.5-3.5 0-1.933 1.567-3.5 3.5-3.5h15c1.933 0 3.5 1.567 3.5 3.5 0 1.933-1.567 3.5-3.5 3.5z" fill="#90a4ae"/><path d="m18.5 22h-15c-1.933 0-3.5-1.567-3.5-3.5 0-1.933 1.567-3.5 3.5-3.5h15c1.933 0 3.5 1.567 3.5 3.5 0 1.933-1.567 3.5-3.5 3.5z" fill="#cfd8dc"/><path d="m11 1h-7.5c-1.933 0-3.5 1.567-3.5 3.5s1.567 3.5 3.5 3.5h7.5z" fill="#b4bcc0"/><path d="m11 8h-7.5c-1.933 0-3.5 1.567-3.5 3.5s1.567 3.5 3.5 3.5h7.5z" fill="#7d8f97"/><path d="m11 15h-7.5c-1.933 0-3.5 1.567-3.5 3.5s1.567 3.5 3.5 3.5h7.5z" fill="#b4bcc0"/><g fill="#fafafa"><circle cx="3.5" cy="4.5" r="1"/><circle cx="8.5" cy="4.5" r="1"/><circle cx="3.5" cy="11.5" r="1"/><circle cx="8.5" cy="11.5" r="1"/><circle cx="3.5" cy="18.5" r="1"/><circle cx="8.5" cy="18.5" r="1"/></g><path d="m18.16 17.91c-.01-.01-.03-.01-.05-.02.01-.01.03-.02.04-.03 0 .02.01.03.01.05z" fill="#4caf50"/><path d="m4.5 4.5h-2c0 .553.448 1 1 1s1-.447 1-1z" fill="#dadada"/><path d="m9.5 4.5h-2c0 .553.448 1 1 1s1-.447 1-1z" fill="#dadada"/><path d="m4.5 11.5h-2c0 .553.448 1 1 1s1-.447 1-1z" fill="#dadada"/><path d="m9.5 11.5h-2c0 .553.448 1 1 1s1-.447 1-1z" fill="#dadada"/><path d="m4.5 18.5h-2c0 .553.448 1 1 1s1-.447 1-1z" fill="#dadada"/><path d="m9.5 18.5h-2c0 .553.448 1 1 1s1-.447 1-1z" fill="#dadada"/><path d="m22.72 13.97-.573.573c-.899-.671-1.998-1.043-3.147-1.043-1.936 0-3.71 1.064-4.631 2.776-.261.487-.079 1.093.407 1.354.483.26 1.091.082 1.354-.407.572-1.063 1.672-1.723 2.87-1.723.611 0 1.19.185 1.696.493l-.476.477c-.471.471-.136 1.28.53 1.28h2.5c.414 0 .75-.336.75-.75v-2.5c0-.667-.81-1-1.28-.53z" fill="#00bcd4"/><path d="m23.226 19.881c-.486-.263-1.092-.082-1.355.402-.574 1.059-1.674 1.717-2.871 1.717-.611 0-1.189-.185-1.696-.493l.476-.477c.471-.471.136-1.28-.53-1.28h-2.5c-.414 0-.75.336-.75.75v2.5c0 .669.811.999 1.28.53l.573-.573c.899.671 1.998 1.043 3.147 1.043 1.932 0 3.706-1.059 4.629-2.764.263-.486.083-1.092-.403-1.355z" fill="#00bcd4"/><path d="m18.875 13.501c-1.887.045-3.605 1.1-4.506 2.775-.261.487-.079 1.093.407 1.354.15.081.312.119.473.119.355 0 .7-.189.882-.526.551-1.026 1.595-1.677 2.744-1.721z" fill="#00a4b9"/><path d="m17.25 19.75h-2.5c-.414 0-.75.336-.75.75v2.5c0 .453.371.75.757.75.184 0 .372-.068.524-.22l.573-.573c.866.647 1.918 1.016 3.022 1.042v-2.001c-.565-.023-1.099-.203-1.571-.491l.476-.477c.47-.47.135-1.28-.531-1.28z" fill="#00a4b9"/></svg>