<svg id="Layer_1" enable-background="new 0 0 512 512" height="512" viewBox="0 0 512 512" width="512" xmlns="http://www.w3.org/2000/svg"><path d="m320 48v416c0 26.51-21.49 48-48 48h-224c-26.51 0-48-21.49-48-48v-416c0-26.51 21.49-48 48-48h224c26.51 0 48 21.49 48 48z" fill="#aaa"/><path d="m320 48v416h-224c-26.51 0-48-21.49-48-48v-416h224c26.51 0 48 21.49 48 48z" fill="#bcbcbc"/><path d="m171.313 84.687-16-16c-3-3.001-7.07-4.687-11.313-4.687h-48c-4.243 0-8.313 1.686-11.313 4.687l-16 16c-3.001 3-4.687 7.07-4.687 11.313v48c0 8.837 7.163 16 16 16h80c8.837 0 16-7.163 16-16v-48c0-4.243-1.686-8.313-4.687-11.313z" fill="#999"/><path d="m171.313 212.687-16-16c-3-3.001-7.07-4.687-11.313-4.687h-48c-4.243 0-8.313 1.686-11.313 4.687l-16 16c-3.001 3-4.687 7.07-4.687 11.313v48c0 8.837 7.163 16 16 16h80c8.837 0 16-7.163 16-16v-48c0-4.243-1.686-8.313-4.687-11.313z" fill="#999"/><path d="m171.313 340.687-16-16c-3-3.001-7.07-4.687-11.313-4.687h-48c-4.243 0-8.313 1.686-11.313 4.687l-16 16c-3.001 3-4.687 7.07-4.687 11.313v48c0 8.837 7.163 16 16 16h80c8.837 0 16-7.163 16-16v-48c0-4.243-1.686-8.313-4.687-11.313z" fill="#999"/><path d="m224 448c-17.645 0-32-14.355-32-32s14.355-32 32-32 32 14.355 32 32-14.355 32-32 32zm-.001-32.021.001.021c0-.014-.001-.021-.001-.021z" fill="#ece2e2"/><path d="m240 224h-16c-8.837 0-16-7.163-16-16s7.163-16 16-16h16c8.837 0 16 7.163 16 16s-7.163 16-16 16z" fill="#ea8692"/><path d="m240 288h-16c-8.837 0-16-7.163-16-16s7.163-16 16-16h16c8.837 0 16 7.163 16 16s-7.163 16-16 16z" fill="#ea8692"/><path d="m240 352h-16c-8.837 0-16-7.163-16-16s7.163-16 16-16h16c8.837 0 16 7.163 16 16s-7.163 16-16 16z" fill="#ea8692"/><path d="m336 432h-112c-8.837 0-16-7.163-16-16s7.163-16 16-16h112c44.112 0 80-35.888 80-80v-176c0-8.837 7.163-16 16-16s16 7.163 16 16v176c0 61.757-50.243 112-112 112z" fill="#ece2e2"/><g fill="#bcbcbc"><path d="m400 80c-8.837 0-16-7.163-16-16v-48c0-8.837 7.163-16 16-16s16 7.163 16 16v48c0 8.837-7.163 16-16 16z"/><path d="m464 80c-8.837 0-16-7.163-16-16v-48c0-8.837 7.163-16 16-16s16 7.163 16 16v48c0 8.837-7.163 16-16 16z"/><path d="m480 48h-96c-8.837 0-16 7.163-16 16v55c0 22.056 17.944 40 40 40h48c22.056 0 40-17.944 40-40v-55c0-8.837-7.163-16-16-16z"/></g><path d="m496 80h-128c-8.837 0-16-7.163-16-16s7.163-16 16-16h128c8.837 0 16 7.163 16 16s-7.163 16-16 16z" fill="#999"/></svg>